<svg xmlns="http://www.w3.org/2000/svg" width="20.274" height="20.274" viewBox="0 0 20.274 20.274">
  <g id="Grupo_1599" data-name="Grupo 1599" transform="translate(-1236.649 -145.174)">
    <path id="Caminho_1" data-name="Caminho 1" d="M14.785,0h-9.3A5.494,5.494,0,0,0,0,5.488v9.3a5.494,5.494,0,0,0,5.488,5.488h9.3a5.494,5.494,0,0,0,5.488-5.488v-9.3A5.494,5.494,0,0,0,14.785,0ZM10.136,15.681a5.544,5.544,0,1,1,5.544-5.544A5.55,5.55,0,0,1,10.136,15.681ZM15.812,5.9A1.638,1.638,0,1,1,17.45,4.263,1.64,1.64,0,0,1,15.812,5.9Zm0,0" transform="translate(1236.65 145.174)" fill="#00ff5b"/>
    <path id="Caminho_2" data-name="Caminho 2" d="M150.375,146.02a4.355,4.355,0,1,0,4.355,4.355A4.36,4.36,0,0,0,150.375,146.02Zm0,0" transform="translate(1096.411 4.936)" fill="#00ff5b"/>
  </g>
</svg>
