<svg xmlns="http://www.w3.org/2000/svg" width="75.386" height="75.729" viewBox="0 0 75.386 75.729">
  <g id="whatsapp_2_" data-name="whatsapp (2)" transform="translate(-3.796 -2.161)">
    <path id="Caminho_217" data-name="Caminho 217" d="M10.894,86.624l5.325-19.445a37.537,37.537,0,1,1,32.526,18.8h-.016a37.5,37.5,0,0,1-17.936-4.568Zm20.82-12.011,1.14.675a31.156,31.156,0,0,0,15.879,4.348h.012A31.2,31.2,0,1,0,22.317,65.019l.742,1.18L19.906,77.709Zm0,0" transform="translate(-7.099 -8.734)" fill="#fff"/>
    <path id="Caminho_218" data-name="Caminho 218" d="M19.344,92.491l5.141-18.773a36.237,36.237,0,1,1,31.4,18.145h-.016a36.23,36.23,0,0,1-17.315-4.409Zm0,0" transform="translate(-14.243 -15.911)" fill="#64b161"/>
    <g id="Grupo_89" data-name="Grupo 89" transform="translate(3.796 2.161)">
      <path id="Caminho_219" data-name="Caminho 219" d="M10.894,86.624l5.325-19.445a37.537,37.537,0,1,1,32.526,18.8h-.016a37.5,37.5,0,0,1-17.936-4.568Zm20.82-12.011,1.14.675a31.156,31.156,0,0,0,15.879,4.348h.012A31.2,31.2,0,1,0,22.317,65.019l.742,1.18L19.906,77.709Zm0,0" transform="translate(-10.894 -10.895)" fill="#fff"/>
      <path id="Caminho_220" data-name="Caminho 220" d="M142.138,143.256c-.7-1.562-1.442-1.593-2.111-1.62-.547-.024-1.173-.022-1.8-.022a3.447,3.447,0,0,0-2.5,1.174,10.513,10.513,0,0,0-3.283,7.822c0,4.615,3.361,9.074,3.83,9.7s6.488,10.4,16.021,14.157c7.923,3.125,9.534,2.5,11.254,2.347s5.549-2.269,6.33-4.459a7.832,7.832,0,0,0,.547-4.46c-.235-.39-.86-.625-1.8-1.094s-5.549-2.738-6.409-3.051-1.485-.469-2.11.47-2.422,3.05-2.969,3.675-1.095.705-2.032.236a25.644,25.644,0,0,1-7.542-4.655,28.259,28.259,0,0,1-5.218-6.495c-.547-.938-.009-1.4.412-1.914a28.283,28.283,0,0,0,2.344-3.207,1.728,1.728,0,0,0-.078-1.643C144.794,149.749,142.971,145.111,142.138,143.256Zm0,0" transform="translate(-113.668 -121.419)" fill="#fff" fill-rule="evenodd"/>
    </g>
  </g>
</svg>
