<svg id="youtube-symbol" xmlns="http://www.w3.org/2000/svg" width="20.351" height="14.185" viewBox="0 0 20.351 14.185">
  <path id="Caminho_193" data-name="Caminho 193" d="M20,16.958a2.571,2.571,0,0,0-2.2-2,68.38,68.38,0,0,0-7.62-.282,68.391,68.391,0,0,0-7.621.282,2.571,2.571,0,0,0-2.2,2A21.794,21.794,0,0,0,0,21.769a21.788,21.788,0,0,0,.355,4.81,2.57,2.57,0,0,0,2.2,2,68.33,68.33,0,0,0,7.621.282,68.317,68.317,0,0,0,7.62-.282,2.572,2.572,0,0,0,2.2-2,21.778,21.778,0,0,0,.356-4.81A21.791,21.791,0,0,0,20,16.958ZM7.549,24.927V18.2l6.47,3.375Z" transform="translate(0 -14.676)" fill="#00ff5b"/>
</svg>
