<svg id="Camada_1" xmlns="http://www.w3.org/2000/svg" viewBox="0 0 197.65 54.48"><defs><style>.cls-1{fill:#00ff5b;}.cls-2{fill:#fff;}</style></defs><title>Logo branco</title><path class="cls-1" d="M164.41,108.26a13.23,13.23,0,0,0-3.24-1.32,14,14,0,0,0-3.55-.48,9.16,9.16,0,0,0-6.82,2.47,9.32,9.32,0,0,0-2.46,6.85A6.14,6.14,0,0,0,149.7,120a4.87,4.87,0,0,0,3.84,1.51,7,7,0,0,0,1.72-.21l.86-4h-5.05l1.34-6.25h13.32l-3.14,14.77a23,23,0,0,1-10.25,2.28q-6.08,0-9.43-3.2t-3.36-9a15.89,15.89,0,0,1,2.27-8.38,15,15,0,0,1,6.35-5.76,21.55,21.55,0,0,1,9.6-2,27.81,27.81,0,0,1,8.25,1.38Z" transform="translate(-72.08 -88.04)"/><path class="cls-1" d="M193.25,107.32a7.38,7.38,0,0,1-2.16,5.34,10.16,10.16,0,0,1-5.73,2.85v.07c2,.74,3.28,2.38,3.81,4.9l1.53,7.18h-8.78l-1-6.11a5.38,5.38,0,0,0-1.12-2.63,3.08,3.08,0,0,0-2.39-.91h-.07l-2,9.65H167l5.8-27.44H183.6a11.89,11.89,0,0,1,7.1,1.85A6.12,6.12,0,0,1,193.25,107.32Zm-8.82,1.53a2.93,2.93,0,0,0-.76-2.14,3.06,3.06,0,0,0-2.27-.77h-1.47l-1.42,6.28h1.84a4.34,4.34,0,0,0,3-1A3.07,3.07,0,0,0,184.43,108.85Z" transform="translate(-72.08 -88.04)"/><path class="cls-1" d="M215.27,106.69h-8.82l-.82,4h8.26l-1.35,6.46h-8.27l-.86,4h9.43l-1.38,6.47h-17.7l5.8-27.44h17.09Z" transform="translate(-72.08 -88.04)"/><path class="cls-1" d="M236.9,106.69h-8.83l-.82,4h8.27l-1.36,6.46h-8.27l-.86,4h9.44l-1.38,6.47h-17.7l5.8-27.44h17.08Z" transform="translate(-72.08 -88.04)"/><path class="cls-1" d="M263.93,127.66h-6.5l-8-13.43a19.1,19.1,0,0,1-1.42-2.84H248c-.23,1.55-.51,3.06-.86,4.56l-2.5,11.71H237l5.8-27.44h7.14L257.58,113a9.1,9.1,0,0,1,.66,1.2,8.87,8.87,0,0,1,.58,1.42h.1a10.61,10.61,0,0,1,.23-1.49l2.93-13.87h7.65Z" transform="translate(-72.08 -88.04)"/><path class="cls-2" d="M135.17,118.48H125.4l1.09-5.14h9.79Z" transform="translate(-72.08 -88.04)"/><polygon class="cls-2" points="0 35.95 29.81 52.81 31.8 49.71 24.29 46.46 20.34 44.75 0 35.95"/><path class="cls-2" d="M129.43,133.94l-12.35-3.67-4.36-6L108,131.25h0l-3.48,5.41L98.26,134l-5.18-2.24L77.3,124.88l17,5.15,11.13-14.94L91.89,97.18H92L126.77,88l-21.14,9.28,6.68,9.16,6.52-9.3h14.52l-13.57,18.39,13.31,17.51,15.47,6.51h0L129.48,134Z" transform="translate(-72.08 -88.04)"/><polygon class="cls-2" points="81.93 54.48 47.92 46.56 47.85 46.56 45.78 43.73 55.25 46.55 55.3 46.56 81.93 54.48"/></svg>
