<svg height="512" viewBox="0 0 64 64" width="512" xmlns="http://www.w3.org/2000/svg"><g id="Fill_Outline" data-name="Fill Outline"><g id="Color"><path d="m59.828 41.444-28.284-28.285-19.092-.707.707 19.092 28.285 28.284a4 4 0 0 0 5.656 0l12.728-12.728a4 4 0 0 0 0-5.656zm-38.89-20.506a3 3 0 1 1 0-4.243 3 3 0 0 1 0 4.243z" fill="#ff7373"/><path d="m59.83 41.44-1.17-1.17-.07.07a16 16 0 0 1 -22.63 0l-6.29-6.29a48.735 48.735 0 0 1 -9.17-12.75 3 3 0 1 1 -2.29-5.43c-.38-1.07-.72-2.15-1.03-3.24l-4.73-.18.71 19.09 28.28 28.29a4.008 4.008 0 0 0 5.66 0l12.73-12.73a4.008 4.008 0 0 0 0-5.66z" fill="#ef5350"/><path d="m49 3 3.708 7.514 8.292 1.204-6 5.849 1.416 8.258-7.416-3.899-7.416 3.899 1.416-8.258-6-5.849 8.292-1.204z" fill="#fffa48"/><path d="m61 11.718-8.292-1.204-3.708-7.514v11.413z" fill="#fffa48"/><path d="m61 11.718-6 5.849 1.416 8.258-7.416-11.412z" fill="#fcea42"/><path d="m37 11.718 8.292-1.204 3.708-7.514v11.413z" fill="#fcea42"/><path d="m37 11.718 6 5.849-1.416 8.258 7.416-11.412z" fill="#fdc741"/><path d="m56.416 25.825-7.416-3.899-7.416 3.899 7.416-11.412z" fill="#efad1b"/><path d="m18.5 31.517 4.79 9.705 10.71 1.557-7.75 7.554 1.829 10.667-9.579-5.036-9.58 5.036 1.83-10.667-7.75-7.554 10.71-1.557z" fill="#fffa48"/><path d="m34 42.779-10.71-1.557-4.79-9.705v14.742z" fill="#fffa48"/><path d="m34 42.779-7.75 7.554 1.829 10.667-9.579-14.741z" fill="#fcea42"/><path d="m3 42.779 10.71-1.557 4.79-9.705v14.742z" fill="#fcea42"/><path d="m3 42.779 7.75 7.554-1.83 10.667 9.58-14.741z" fill="#fdc741"/><path d="m28.079 61-9.579-5.036-9.58 5.036 9.58-14.741z" fill="#efad1b"/></g><g id="Outline_copy" fill="#323232" data-name="Outline copy"><path d="m26.962 13.99 4.149.155 9.789 9.775-.3 1.736a1 1 0 0 0 1.451 1.054l1.073-.564 7.949 7.954a1 1 0 0 0 1.414-1.414l-7.511-7.511 4.024-2.119 6.951 3.654a1 1 0 0 0 1.449-1.054l-1.327-7.74 5.627-5.481a1 1 0 0 0 -.554-1.706l-8.292-1.2a1 1 0 1 0 -.288 1.979l2.932.426-5.498 1.229v-5.878l.281.569a1 1 0 0 0 1.793-.885l-2.174-4.411a1.041 1.041 0 0 0 -1.793 0l-3.479 7.042-7.772 1.129a1 1 0 0 0 -.554 1.706l5.623 5.481-.616 3.591-9.062-9.054a1 1 0 0 0 -.669-.292l-4.54-.17a.988.988 0 0 0 -1.038.962 1 1 0 0 0 .962 1.037zm21.573 7.051-4.025 2.116 4.49-6.909 4.49 6.909-4.025-2.116a1 1 0 0 0 -.93 0zm5.479-3.3.6 3.475-3.988-6.138 7.15-1.605-3.476 3.378a1 1 0 0 0 -.286.885zm-8.579-6.241a1 1 0 0 0 .754-.547l1.811-3.667v5.877l-5.5-1.234zm-5.208 1.965 7.151 1.605-3.988 6.141.6-3.475a1 1 0 0 0 -.288-.885z"/><path d="m55.317 35.513a1 1 0 0 0 -1.417 1.414l5.218 5.218a3.014 3.014 0 0 1 0 4.248l-12.73 12.73a3.012 3.012 0 0 1 -4.246 0l-11.586-11.6 4.144-4.023a1 1 0 0 0 -.554-1.706l-10.19-1.481-4.556-9.238a1.041 1.041 0 0 0 -1.794 0l-1.155 2.339-2.3-2.3-.389-10.471a9.245 9.245 0 0 0 1.689.32 4 4 0 0 0 6.2.686 4 4 0 1 0 -6.823-2.8 9.069 9.069 0 0 1 -1.144-.327l-.187-5.031 9.483.35a.979.979 0 0 0 1.036-.962 1 1 0 0 0 -.962-1.037l-3.192-.117a18.071 18.071 0 0 0 -3.578-5 16.894 16.894 0 0 0 -6.898-4.338c-2.544-.748-4.695-.413-6.053.946s-1.7 3.508-.946 6.053a16.894 16.894 0 0 0 4.336 6.891 18.111 18.111 0 0 0 5 3.58l.436 11.72a.993.993 0 0 0 .292.67l3.061 3.061-2.468 5-10.188 1.481a1 1 0 0 0 -.556 1.711l5.379 5.244a1 1 0 0 0 1.4-1.433l-2.852-2.783 10.651 2.391-6.152 9.467 1.01-5.884a1 1 0 0 0 -1.972-.338l-1.829 10.667a1 1 0 0 0 1.451 1.054l9.114-4.791 9.114 4.791a1 1 0 0 0 1.451-1.054l-1.74-10.149 1.8-1.758 11.61 11.616a5.018 5.018 0 0 0 7.072 0l12.73-12.73a5.018 5.018 0 0 0 0-7.074zm-35.087-15.283a2 2 0 0 1 -2.162.44 4.245 4.245 0 0 0 2.6-2.6 2 2 0 0 1 -.438 2.16zm-2.83-2.83a1.993 1.993 0 0 1 1.414-.585c.04 0 .079.009.119.012a2.383 2.383 0 0 1 -2.106 2.108 1.987 1.987 0 0 1 .573-1.535zm-9.263-2.537a14.877 14.877 0 0 1 -3.831-6.041c-.525-1.784-.364-3.269.441-4.075s2.291-.966 4.075-.441a14.877 14.877 0 0 1 6.041 3.831 17.091 17.091 0 0 1 2.7 3.5l-5.079-.187a.983.983 0 0 0 -.744.292 1 1 0 0 0 -.292.744l.189 5.08a17.08 17.08 0 0 1 -3.5-2.703zm15.009 27.349 5.351.777-9 2.02v-9.209l2.893 5.862a1 1 0 0 0 .756.55zm-14.646.778 5.351-.778a1 1 0 0 0 .753-.547l2.896-5.865v9.21zm9.532 12.089-6.188 3.253 6.656-10.238 6.653 10.238-6.188-3.253a.994.994 0 0 0 -.93 0zm7.232-4.579 1.009 5.884-6.151-9.467 10.651-2.391-5.221 5.089a1 1 0 0 0 -.288.885z"/><path d="m27.457 27.457a2.992 2.992 0 0 0 1.966-5.105l-1.415-1.414a1.029 1.029 0 0 0 -1.414 0l-5.657 5.656a1 1 0 0 0 0 1.414l1.415 1.415a2.987 2.987 0 0 0 5.105-1.966zm-.156-4.4.708.707a1 1 0 0 1 -1.415 1.414l-.707-.707zm-2.121 4.95a1 1 0 0 1 -1.414 0l-.707-.708 1.414-1.414.707.707a1 1 0 0 1 0 1.417z"/><path d="m29.423 35.08a1 1 0 1 0 1.414 1.414l1.415-1.414a2.981 2.981 0 0 0 .862-1.966 2.992 2.992 0 0 0 1.966-5.1l-1.415-1.415a1 1 0 0 0 -1.414 0l-5.657 5.658a1 1 0 1 0 1.414 1.414l2.122-2.122.707.708a1 1 0 0 1 0 1.414zm3.535-6.364.707.707a1 1 0 0 1 -1.414 1.414l-.707-.707z"/><path d="m35.08 40.737a1 1 0 1 0 1.414 1.414l4.242-4.243a3 3 0 0 0 0-4.242 3.071 3.071 0 0 0 -4.243 0l-4.243 4.242a1 1 0 0 0 1.414 1.414l2.123-2.122 1.413 1.415zm2.121-4.95.708-.707a1.022 1.022 0 0 1 1.413 0 1 1 0 0 1 0 1.414l-.707.707z"/><path d="m40.918 47.951a1 1 0 0 0 1.233-.143l5.657-5.657a1 1 0 0 0 -1.414-1.414l-2.662 2.663 1.489-4.466a1 1 0 0 0 -1.656-1.024l-5.657 5.657a1 1 0 0 0 1.414 1.414l2.662-2.662-1.489 4.467a1 1 0 0 0 .423 1.165z"/><path d="m44.979 52.05a3 3 0 0 0 4.243 0l2.828-2.828a3 3 0 0 0 0-4.242l-1.414-1.415a1 1 0 0 0 -1.414 0l-5.657 5.657a1 1 0 0 0 0 1.414zm4.95-6.364.707.708a1 1 0 0 1 0 1.414l-2.828 2.828a1 1 0 0 1 -1.414 0l-.708-.707z"/></g></g></svg>